<svg width="34" height="35" viewBox="0 0 34 35" fill="none" xmlns="http://www.w3.org/2000/svg">
<g filter="url(#filter0_d_2147_4671)">
<path d="M17 1.75C10.2352 1.75 4.75 7.23516 4.75 14C4.75 20.7648 10.2352 26.25 17 26.25C23.7648 26.25 29.25 20.7648 29.25 14C29.25 7.23516 23.7648 1.75 17 1.75ZM22.25 14.6562C22.25 14.7766 22.1516 14.875 22.0312 14.875H17.875V19.0312C17.875 19.1516 17.7766 19.25 17.6562 19.25H16.3438C16.2234 19.25 16.125 19.1516 16.125 19.0312V14.875H11.9688C11.8484 14.875 11.75 14.7766 11.75 14.6562V13.3438C11.75 13.2234 11.8484 13.125 11.9688 13.125H16.125V8.96875C16.125 8.84844 16.2234 8.75 16.3438 8.75H17.6562C17.7766 8.75 17.875 8.84844 17.875 8.96875V13.125H22.0312C22.1516 13.125 22.25 13.2234 22.25 13.3438V14.6562Z" fill="#45BA7A"/>
</g>
<defs>
<filter id="filter0_d_2147_4671" x="-1" y="0" width="36" height="36" filterUnits="userSpaceOnUse" color-interpolation-filters="sRGB">
<feFlood flood-opacity="0" result="BackgroundImageFix"/>
<feColorMatrix in="SourceAlpha" type="matrix" values="0 0 0 0 0 0 0 0 0 0 0 0 0 0 0 0 0 0 127 0" result="hardAlpha"/>
<feOffset dy="4"/>
<feGaussianBlur stdDeviation="2"/>
<feColorMatrix type="matrix" values="0 0 0 0 0.174184 0 0 0 0 0.329167 0 0 0 0 0.24439 0 0 0 0.16 0"/>
<feBlend mode="normal" in2="BackgroundImageFix" result="effect1_dropShadow_2147_4671"/>
<feBlend mode="normal" in="SourceGraphic" in2="effect1_dropShadow_2147_4671" result="shape"/>
</filter>
</defs>
</svg>
