<svg width="24" height="24" viewBox="0 0 24 24" fill="none" xmlns="http://www.w3.org/2000/svg">
<path d="M22 16.693L16.859 17.975L12.039 16.979L7.104 17.975L2 16.687V16C2 15.2044 2.31607 14.4413 2.87868 13.8787C3.44129 13.3161 4.20435 13 5 13H19C19.7956 13 20.5587 13.3161 21.1213 13.8787C21.6839 14.4413 22 15.2044 22 16V16.693ZM22 18.756V23H2V18.75L7.057 20.025L12.035 19.021L16.894 20.025L22 18.756ZM9 10H15V12H9V10ZM12 9.4C11.2044 9.4 10.4413 9.08393 9.87868 8.52132C9.31607 7.95871 9 7.19565 9 6.4C9 5.295 10 3.495 12 1C14 3.495 15 5.295 15 6.4C15 7.19565 14.6839 7.95871 14.1213 8.52132C13.5587 9.08393 12.7956 9.4 12 9.4Z" fill="#EB5757"/>
</svg>
