<svg width="12" height="12" viewBox="0 0 12 12" fill="none" xmlns="http://www.w3.org/2000/svg">
<path fill-rule="evenodd" clip-rule="evenodd" d="M8.72 3.1182C8.74 3.15316 8.775 3.17814 8.82 3.17814C10.02 3.17814 11 4.15705 11 5.35572V8.32242C11 9.52109 10.02 10.5 8.82 10.5H3.18C1.975 10.5 1 9.52109 1 8.32242V5.35572C1 4.15705 1.975 3.17814 3.18 3.17814C3.22 3.17814 3.26 3.15816 3.275 3.1182L3.305 3.05827C3.32224 3.02198 3.33993 2.98472 3.35789 2.94688C3.4858 2.67746 3.62731 2.3794 3.715 2.20422C3.945 1.75472 4.335 1.50499 4.82 1.5H7.175C7.66 1.50499 8.055 1.75472 8.285 2.20422C8.36375 2.36154 8.48372 2.61495 8.59936 2.85919C8.62322 2.9096 8.6469 2.95962 8.67 3.00832L8.72 3.1182ZM8.355 5.03607C8.355 5.2858 8.555 5.48557 8.805 5.48557C9.055 5.48557 9.26 5.2858 9.26 5.03607C9.26 4.78635 9.055 4.58158 8.805 4.58158C8.555 4.58158 8.355 4.78635 8.355 5.03607ZM5.135 5.8102C5.37 5.57546 5.675 5.4506 6 5.4506C6.325 5.4506 6.63 5.57546 6.86 5.8052C7.09 6.03495 7.215 6.33961 7.215 6.66425C7.21 7.33351 6.67 7.8779 6 7.8779C5.675 7.8779 5.37 7.75304 5.14 7.5233C4.91 7.29355 4.785 6.98889 4.785 6.66425V6.65926C4.78 6.3446 4.905 6.03994 5.135 5.8102ZM7.385 8.05272C7.03 8.40732 6.54 8.62708 6 8.62708C5.475 8.62708 4.985 8.4223 4.61 8.05272C4.24 7.67813 4.035 7.18868 4.035 6.66426C4.03 6.14484 4.235 5.65538 4.605 5.2808C4.98 4.90621 5.475 4.70144 6 4.70144C6.525 4.70144 7.02 4.90621 7.39 5.2758C7.76 5.65038 7.965 6.14484 7.965 6.66426C7.96 7.20865 7.74 7.69811 7.385 8.05272Z" fill="#FEFFFE"/>
</svg>
