<svg width="14" height="14" viewBox="0 0 14 14" fill="none" xmlns="http://www.w3.org/2000/svg">
<path fill-rule="evenodd" clip-rule="evenodd" d="M6.99986 1.33368C3.87 1.33368 1.33319 3.87049 1.33319 7.00035C1.33319 10.1302 3.87 12.667 6.99986 12.667C10.1297 12.667 12.6665 10.1302 12.6665 7.00035C12.6665 3.87049 10.1297 1.33368 6.99986 1.33368ZM0.333191 7.00035C0.333191 3.3182 3.31771 0.333679 6.99986 0.333679C10.682 0.333679 13.6665 3.3182 13.6665 7.00035C13.6665 10.6825 10.682 13.667 6.99986 13.667C3.31771 13.667 0.333191 10.6825 0.333191 7.00035Z" fill="#828282"/>
<path fill-rule="evenodd" clip-rule="evenodd" d="M6.77423 3.73126C7.05037 3.73126 7.27423 3.95512 7.27423 4.23126V7.17866L9.54372 8.53253C9.78087 8.674 9.85843 8.98094 9.71696 9.21809C9.57549 9.45524 9.26856 9.5328 9.03141 9.39133L6.51807 7.89199C6.36685 7.80178 6.27423 7.63868 6.27423 7.4626V4.23126C6.27423 3.95512 6.49809 3.73126 6.77423 3.73126Z" fill="#828282"/>
</svg>
