<svg width="24" height="24" viewBox="0 0 24 24" fill="none" xmlns="http://www.w3.org/2000/svg">
<path d="M3.92378 9.79125C4.15574 10.0081 4.64889 10.0553 4.9238 9.73317L6.68378 7.72516C6.93944 7.43352 6.90998 6.99007 6.61801 6.73469C6.3261 6.47936 5.88218 6.50868 5.62656 6.80036L4.33701 8.27161L3.99137 7.95918C3.70357 7.69911 3.25933 7.72127 2.99894 8.00874C2.73859 8.2962 2.76079 8.74003 3.04854 9.00014L3.92378 9.79125Z" fill="#00A74C"/>
<path d="M12.5695 8.54132H8.51531C8.12727 8.54132 7.81268 8.85558 7.81268 9.24324C7.81268 9.6309 8.12727 9.94516 8.51531 9.94516H12.5695C12.9575 9.94516 13.2721 9.6309 13.2721 9.24324C13.2721 8.85558 12.9575 8.54132 12.5695 8.54132Z" fill="#00A74C"/>
<path d="M12.5695 11.4529H3.46227C3.07423 11.4529 2.75964 11.7671 2.75964 12.1548C2.75964 12.5425 3.07423 12.8567 3.46227 12.8567H12.5695C12.9575 12.8567 13.2721 12.5425 13.2721 12.1548C13.2721 11.7671 12.9575 11.4529 12.5695 11.4529Z" fill="#00A74C"/>
<path d="M3.92378 17.8377C4.15574 18.0546 4.64889 18.1018 4.9238 17.7796L6.68378 15.7716C6.93944 15.48 6.90998 15.0365 6.61801 14.7811C6.3261 14.5258 5.88218 14.5551 5.62656 14.8468L4.33701 16.3181L3.99137 16.0057C3.70357 15.7456 3.25928 15.7678 2.99894 16.0552C2.73859 16.3427 2.76079 16.7866 3.04854 17.0466L3.92378 17.8377Z" fill="#00A74C"/>
<path d="M12.5695 16.5852H8.51531C8.12727 16.5852 7.81268 16.8995 7.81268 17.2871C7.81268 17.6748 8.12727 17.9891 8.51531 17.9891H12.5695C12.9575 17.9891 13.2721 17.6748 13.2721 17.2871C13.2721 16.8995 12.9575 16.5852 12.5695 16.5852Z" fill="#00A74C"/>
<path d="M12.5695 19.4551H3.46227C3.07423 19.4551 2.75964 19.7693 2.75964 20.157C2.75964 20.5447 3.07423 20.8589 3.46227 20.8589H12.5695C12.9575 20.8589 13.2721 20.5447 13.2721 20.157C13.2721 19.7693 12.9575 19.4551 12.5695 19.4551Z" fill="#00A74C"/>
<path d="M22.2742 0H8.8954C8.76809 0.000608942 8.6159 0.0256692 8.46558 0.0841277C8.32346 0.0568658 8.17783 0.0427196 8.03009 0.0427196C7.42734 0.0427196 6.85849 0.275008 6.42844 0.696817C6.16879 0.951449 5.97726 1.25793 5.86376 1.59323H5.11279C4.58245 1.59323 4.14814 2.00693 4.11352 2.52814H1.63569C0.740262 2.52814 0.0117798 3.25587 0.0117798 4.15041V22.3778C0.0117798 23.2723 0.740262 24 1.63569 24H14.4245C15.1736 24 15.8056 23.4906 15.9922 22.8004H22.3922C23.2366 22.7492 24.0039 21.9826 23.9881 21.0883V1.71211C23.9881 0.768063 23.2192 0 22.2742 0V0ZM5.51535 2.99703H6.44647C6.82903 2.99703 7.14127 2.69129 7.14896 2.3092C7.15851 1.83348 7.55381 1.44647 8.03009 1.44647C8.50638 1.44647 8.90168 1.83348 8.91128 2.3092C8.91896 2.69129 9.23121 2.99703 9.61377 2.99703H10.5449V3.77015H5.51535V2.99703ZM14.6432 22.3777C14.6432 22.4982 14.5451 22.5962 14.4245 22.5962H1.63569C1.51512 22.5962 1.41703 22.4982 1.41703 22.3777V4.15036C1.41703 4.02993 1.51512 3.93194 1.63569 3.93194H4.1101V4.08108C4.1101 4.6837 4.60086 5.17399 5.20409 5.17399H10.8561C11.4594 5.17399 11.9501 4.68375 11.9501 4.08108V3.93194H14.4245C14.5451 3.93194 14.6432 4.02993 14.6432 4.15036V22.3777ZM22.5828 21.0882C22.5828 21.2448 22.4657 21.3762 22.3104 21.394C22.3036 21.3948 22.2969 21.3956 22.2902 21.3966H16.0485V4.15036C16.0485 3.25587 15.32 2.52809 14.4245 2.52809H11.9463C11.9074 2.00623 11.4709 1.59318 10.9386 1.59318H10.1964C10.1746 1.52882 10.1491 1.46586 10.1216 1.4038H22.2742C22.4444 1.4038 22.5828 1.54212 22.5828 1.71211V21.0882Z" fill="#00A74C"/>
</svg>
