<svg width="32" height="30" viewBox="0 0 32 30" fill="none" xmlns="http://www.w3.org/2000/svg">
<path d="M21.4067 17.9216C18.7024 17.9216 17.0784 18.5283 15.6141 20.0854C15.3793 20.3351 15.2559 20.6613 15.2664 21.0038C15.2769 21.3464 15.4202 21.6643 15.6699 21.8991C16.1852 22.3837 16.9989 22.3588 17.4836 21.8433C18.3103 20.9641 19.1803 20.4877 21.4067 20.4877C23.1243 20.4877 24.2582 20.7038 25.3298 21.8433C25.5713 22.1001 25.9121 22.2474 26.2646 22.2474C26.5925 22.2474 26.9046 22.1237 27.1435 21.8991C27.6589 21.4145 27.684 20.6009 27.1993 20.0854C25.735 18.5283 24.1109 17.9216 21.4067 17.9216ZM26.5012 21.2162C26.437 21.2767 26.3529 21.31 26.2646 21.31C26.1682 21.31 26.0787 21.2713 26.0128 21.2011C24.72 19.8264 23.2919 19.5502 21.4067 19.5502C18.8637 19.5502 17.7589 20.1819 16.8006 21.2011C16.6699 21.3401 16.4508 21.3467 16.312 21.2161C16.2447 21.1529 16.2061 21.0673 16.2033 20.975C16.2005 20.8827 16.2337 20.7948 16.297 20.7276C17.5779 19.3654 18.9627 18.8589 21.4067 18.8589C23.8505 18.8589 25.2354 19.3654 26.5163 20.7275C26.6468 20.8665 26.6401 21.0856 26.5012 21.2162Z" fill="white"/>
<path d="M30.6746 16.584C29.1422 15.079 27.4231 14.2831 25.6907 13.8694L24.8034 9.82515C26.6678 10.427 28.7241 9.7104 29.8054 8.03659C30.6733 6.69304 30.7193 4.96935 29.9255 3.53817C29.7999 3.31173 29.5146 3.22998 29.2883 3.3556C29.0619 3.48117 28.9802 3.76648 29.1057 3.99279C29.7314 5.12085 29.6979 6.47541 29.018 7.52778C28.1155 8.92491 26.3483 9.47303 24.8164 8.83103C24.5622 8.72459 24.2725 8.76834 24.0604 8.94528C23.8468 9.12347 23.7511 9.40272 23.8106 9.67391L24.6872 13.6698C23.5698 13.4903 22.4607 13.4438 21.4066 13.4438C20.993 13.4438 20.5708 13.4513 20.1431 13.4708C20.1131 13.4011 20.0822 13.3325 20.0495 13.2664C19.2401 11.6295 18.1345 10.4323 16.8997 9.51984C17.4857 8.70016 18.2931 8.15222 20.1938 7.73522C21.8715 7.36716 23.0254 7.33516 24.3164 8.21872C24.6072 8.41778 24.9715 8.48866 25.3161 8.41309C25.6363 8.34284 25.9146 8.15516 26.0998 7.88447C26.4994 7.3006 26.3494 6.5006 25.7656 6.10091C24.0016 4.89373 22.2853 4.6491 19.6439 5.2286C17.1888 5.76729 15.759 6.61735 14.6889 8.20691C13.9033 7.83035 13.1056 7.52247 12.3303 7.25241C11.8616 7.0891 11.378 6.9316 10.881 6.78972C10.9433 6.66241 11.0124 6.53879 11.0896 6.4206C12.1975 4.72385 13.99 2.84454 18.8853 1.77054C21.5659 1.18242 24.7116 0.822359 27.7167 2.61086C27.9392 2.74323 28.2267 2.67023 28.3592 2.44779C28.4916 2.22529 28.4186 1.93767 28.1962 1.80523C24.9106 -0.150014 21.5442 0.227736 18.6844 0.855172C15.7522 1.49848 12.4636 2.60192 10.3047 5.90829C10.1717 6.11185 10.0559 6.32679 9.95817 6.5506C7.68336 6.02366 5.16586 5.93172 2.54524 7.16922C1.4815 7.6716 0.645687 8.60234 0.252375 9.72278C-0.138249 10.8353 -0.0737492 12.0207 0.434062 13.0602C1.30862 14.8507 3.26499 15.8067 5.18774 15.431L3.73699 19.5958C3.42443 20.4933 3.90024 21.4778 4.79774 21.7904L7.31098 22.6658C7.36198 22.6836 7.41398 22.692 7.46517 22.692C7.65911 22.692 7.84048 22.5708 7.90786 22.3773C7.99298 22.1328 7.86386 21.8656 7.61936 21.7804L5.10618 20.9051C4.69674 20.7625 4.47974 20.3134 4.62236 19.9041L6.19155 15.3991C6.28299 15.1367 6.22117 14.8481 6.03011 14.6458C5.84043 14.4449 5.55811 14.367 5.29318 14.4425C3.69593 14.8977 2.00637 14.1433 1.27644 12.6488C0.879499 11.8363 0.829936 10.9073 1.13687 10.0332C1.44781 9.14772 2.107 8.41278 2.94549 8.01678C4.77793 7.15153 7.28911 6.48916 12.0219 8.13778C14.6385 9.04916 17.521 10.4055 19.1365 13.541C17.8111 13.6686 16.4537 13.95 15.1438 14.5334C14.2743 13.1282 12.9979 12.2266 10.8574 11.4809C8.30367 10.5913 6.5703 10.63 4.6753 11.6189C4.04818 11.9463 3.80424 12.7228 4.13143 13.35C4.45874 13.9773 5.2353 14.2212 5.86255 13.894C6.93242 13.3356 7.91073 13.1719 10.0134 13.9043C11.3647 14.375 12.3045 14.8644 12.9469 15.8671C12.6725 16.0861 12.4028 16.3245 12.1388 16.5838C11.2994 17.4081 10.8164 18.5621 10.8135 19.7496C10.8127 20.0948 10.8519 20.4327 10.9267 20.7589L10.51 21.9549C10.3806 22.3264 9.9931 22.5465 9.60923 22.4665C9.35579 22.4139 9.10754 22.5766 9.05492 22.8301C9.00223 23.0836 9.16498 23.3317 9.41842 23.3844C9.53492 23.4086 9.65142 23.4203 9.7666 23.4203C10.4855 23.4203 11.1507 22.9653 11.3954 22.2634L11.4645 22.065C11.6384 22.3443 11.8446 22.6052 12.083 22.8416C13.498 24.2447 15.6598 24.5042 17.3521 23.5167V27.927C17.3521 28.8774 18.1253 29.6506 19.0757 29.6506H23.7379C24.6883 29.6506 25.4616 28.8774 25.4616 27.927V23.5168C27.1539 24.5042 29.3157 24.2447 30.7306 22.8416C31.5521 22.0269 32.0029 20.9288 32.0001 19.7497C31.997 18.5621 31.514 17.4083 30.6746 16.584ZM16.1248 8.99266C15.9282 8.86959 15.7295 8.75234 15.5291 8.64072C16.4508 7.32997 17.707 6.61341 19.8448 6.14441C22.2318 5.6206 23.6931 5.81866 25.2362 6.87466C25.3935 6.98235 25.4339 7.19785 25.3262 7.3551C25.2763 7.42797 25.2014 7.4786 25.1152 7.49747C25.021 7.5181 24.9253 7.49953 24.8458 7.4451C23.2884 6.37929 21.8343 6.4156 19.993 6.81953C17.8089 7.29878 16.8192 8.0141 16.1248 8.99266ZM10.3216 13.019C7.92036 12.1826 6.66924 12.4156 5.42886 13.0629C5.25986 13.1511 5.05061 13.0854 4.96249 12.9164C4.8743 12.7475 4.94005 12.5383 5.10899 12.4501C6.76674 11.5851 8.24117 11.5623 10.549 12.3663C12.4249 13.0197 13.5488 13.788 14.3012 14.9559C14.1016 15.0679 13.9037 15.1883 13.7075 15.317C12.9295 14.1257 11.8167 13.5398 10.3216 13.019ZM30.0704 22.176C28.8894 23.3472 27.0457 23.5039 25.6871 22.5486C25.4616 22.3902 25.1694 22.3708 24.9243 22.4981C24.6774 22.6263 24.524 22.8786 24.524 23.1564V27.927C24.524 28.3605 24.1713 28.7131 23.7379 28.7131H19.0756C18.6421 28.7131 18.2895 28.3604 18.2895 27.927V23.1564C18.2895 22.8786 18.1361 22.6264 17.8892 22.4982C17.7816 22.4423 17.6648 22.4146 17.5487 22.4146C17.4003 22.4146 17.2528 22.4598 17.1263 22.5486C15.7675 23.5039 13.9241 23.3471 12.743 22.176C12.3219 21.7584 12.0265 21.244 11.8728 20.6783C11.8698 20.6644 11.8661 20.6509 11.8618 20.6374C11.7883 20.353 11.7501 20.0561 11.7508 19.752C11.7532 18.8136 12.134 17.9026 12.7955 17.2528C13.0832 16.9703 13.3992 16.6865 13.7598 16.4132C13.7647 16.4108 13.7698 16.4091 13.7747 16.4066C13.8257 16.3801 13.8693 16.3453 13.9058 16.305C14.2511 16.0546 14.6368 15.8145 15.0766 15.594C15.11 15.585 15.1429 15.5724 15.1747 15.5554C15.1958 15.5441 15.2152 15.5311 15.2338 15.5172C16.6308 14.851 18.5563 14.3815 21.4066 14.3815C24.2189 14.3815 27.4413 14.7226 30.0177 17.2529C30.6793 17.9026 31.0601 18.8136 31.0624 19.7521C31.0647 20.6784 30.7124 21.5392 30.0704 22.176Z" fill="white"/>
<path d="M24.1029 16.6059C24.3619 16.6059 24.5717 16.3961 24.5717 16.1372V15.6896C24.5717 15.4308 24.3619 15.2209 24.1029 15.2209C23.844 15.2209 23.6342 15.4308 23.6342 15.6896V16.1372C23.6342 16.3961 23.8441 16.6059 24.1029 16.6059Z" fill="white"/>
<path d="M21.4067 16.9497C21.8147 16.9497 22.2025 16.773 22.4709 16.465C22.641 16.2699 22.6206 15.9738 22.4254 15.8037C22.2302 15.6337 21.9342 15.6539 21.7641 15.8492C21.6738 15.9528 21.5435 16.0122 21.4066 16.0122C21.2697 16.0122 21.1394 15.9528 21.049 15.8492C20.879 15.654 20.5829 15.6337 20.3878 15.8037C20.1926 15.9738 20.1722 16.2699 20.3423 16.465C20.6108 16.773 20.9987 16.9497 21.4067 16.9497Z" fill="white"/>
<path d="M18.7104 16.6059C18.9693 16.6059 19.1791 16.3961 19.1791 16.1372V15.6896C19.1791 15.4308 18.9693 15.2209 18.7104 15.2209C18.4515 15.2209 18.2416 15.4308 18.2416 15.6896V16.1372C18.2417 16.3961 18.4515 16.6059 18.7104 16.6059Z" fill="white"/>
</svg>
