<svg width="24" height="24" viewBox="0 0 24 24" fill="none" xmlns="http://www.w3.org/2000/svg">
<g clip-path="url(#clip0_2160_4624)">
<path d="M22.4042 12.3108C22.3076 12.1132 22.3076 11.8866 22.4042 11.6891L23.2993 9.85795C23.7977 8.83838 23.4028 7.62316 22.4003 7.09127L20.5999 6.13596C20.4056 6.03293 20.2725 5.84956 20.2344 5.63304L19.8823 3.62544C19.6862 2.50767 18.6523 1.75655 17.5288 1.9155L15.5107 2.20097C15.2929 2.23172 15.0775 2.16169 14.9195 2.00883L13.4546 0.591712C12.639 -0.197377 11.3611 -0.197424 10.5455 0.591712L9.0806 2.00897C8.92253 2.16188 8.70714 2.23177 8.48936 2.20111L6.47127 1.91564C5.34744 1.7566 4.31386 2.50781 4.11778 3.62559L3.76566 5.63309C3.72764 5.84965 3.59447 6.03298 3.40027 6.13606L1.59981 7.09136C0.597345 7.6232 0.202473 8.83852 0.700845 9.8581L1.59592 11.6892C1.69248 11.8868 1.69248 12.1134 1.59592 12.3109L0.700798 14.142C0.202426 15.1616 0.597298 16.3768 1.59976 16.9087L3.40022 17.864C3.59447 17.967 3.72764 18.1504 3.76566 18.3669L4.11778 20.3745C4.29628 21.3921 5.1688 22.1057 6.1716 22.1056C6.27036 22.1056 6.37058 22.0987 6.47131 22.0844L8.48941 21.799C8.70705 21.7681 8.92258 21.8382 9.08064 21.9911L10.5455 23.4082C10.9534 23.8028 11.4766 24.0001 12.0001 24C12.5233 24 13.0469 23.8027 13.4546 23.4082L14.9195 21.9911C15.0776 21.8382 15.293 21.7684 15.5107 21.799L17.5288 22.0844C18.6528 22.2434 19.6862 21.4923 19.8823 20.3745L20.2345 18.367C20.2725 18.1504 20.4057 17.9671 20.5999 17.864L22.4003 16.9087C23.4028 16.3769 23.7977 15.1615 23.2993 14.142L22.4042 12.3108ZM21.7515 15.6859L19.9511 16.6412C19.3771 16.9458 18.9834 17.4876 18.8711 18.1277L18.519 20.1353C18.4526 20.5135 18.103 20.7675 17.7227 20.7138L15.7046 20.4283C15.061 20.3372 14.4242 20.5443 13.9571 20.9961L12.4921 22.4132C12.2162 22.6801 11.7839 22.6801 11.5079 22.4132L10.043 20.9961C9.64825 20.6142 9.13216 20.4073 8.59338 20.4073C8.49466 20.4073 8.39515 20.4142 8.29549 20.4283L6.27739 20.7138C5.89743 20.7675 5.54751 20.5134 5.48113 20.1352L5.12896 18.1276C5.01665 17.4875 4.623 16.9457 4.04892 16.6411L2.24846 15.6858C1.90928 15.5059 1.77568 15.0948 1.94429 14.7498L2.83941 12.9186C3.12478 12.3348 3.12478 11.6651 2.83941 11.0812L1.94429 9.25008C1.77568 8.90513 1.90928 8.49399 2.24846 8.31404L4.04892 7.35874C4.62295 7.0541 5.01665 6.51232 5.12891 5.8722L5.48104 3.86465C5.54741 3.48646 5.897 3.2324 6.2773 3.28612L8.2954 3.57159C8.93875 3.66266 9.57583 3.45562 10.0429 3.00379L11.5079 1.58668C11.7838 1.31977 12.2161 1.31977 12.4921 1.58668L13.957 3.00379C14.4241 3.45566 15.0611 3.66266 15.7045 3.57159L17.7226 3.28612C18.1026 3.23235 18.4525 3.48646 18.5189 3.86465L18.871 5.87224C18.9833 6.51237 19.377 7.05419 19.951 7.35874L21.7515 8.31404C22.0907 8.49399 22.2243 8.90513 22.0557 9.25008L21.1605 11.0812C20.8752 11.665 20.8752 12.3348 21.1605 12.9186L22.0557 14.7497C22.2243 15.0948 22.0907 15.5059 21.7515 15.6859Z" fill="#F68B1F"/>
<path d="M17.0571 6.94288C16.7868 6.6726 16.3485 6.6726 16.0783 6.94288L6.94288 16.0783C6.6726 16.3486 6.6726 16.7868 6.94288 17.0571C7.07802 17.1922 7.25516 17.2598 7.43226 17.2598C7.60935 17.2598 7.78654 17.1923 7.92163 17.0571L17.057 7.92172C17.3274 7.65139 17.3274 7.21321 17.0571 6.94288Z" fill="#F68B1F"/>
<path d="M9.23154 5.77106C7.83223 5.77106 6.69379 6.9095 6.69379 8.30881C6.69379 9.70811 7.83223 10.8466 9.23154 10.8466C10.6308 10.8466 11.7693 9.70811 11.7693 8.30881C11.7693 6.9095 10.6308 5.77106 9.23154 5.77106ZM9.23154 9.4623C8.59549 9.4623 8.07804 8.94485 8.07804 8.30876C8.07804 7.67272 8.59549 7.15527 9.23154 7.15527C9.86758 7.15527 10.3851 7.67272 10.3851 8.30876C10.385 8.94485 9.86758 9.4623 9.23154 9.4623Z" fill="#F68B1F"/>
<path d="M14.7684 13.1535C13.3691 13.1535 12.2307 14.292 12.2307 15.6913C12.2307 17.0906 13.3691 18.229 14.7684 18.229C16.1677 18.229 17.3062 17.0906 17.3062 15.6913C17.3062 14.292 16.1677 13.1535 14.7684 13.1535ZM14.7684 16.8447C14.1324 16.8447 13.6149 16.3273 13.6149 15.6913C13.6149 15.0552 14.1323 14.5378 14.7684 14.5378C15.4044 14.5378 15.9219 15.0552 15.9219 15.6913C15.9219 16.3273 15.4044 16.8447 14.7684 16.8447Z" fill="#F68B1F"/>
</g>
<defs>
<clipPath id="clip0_2160_4624">
<rect width="24" height="24" fill="white"/>
</clipPath>
</defs>
</svg>
