<svg width="30" height="32" viewBox="0 0 30 32" fill="none" xmlns="http://www.w3.org/2000/svg">
<path d="M9.4186 15.2441C9.22354 15.2766 4.62249 16.0729 3.18716 18.8539C1.98243 21.1883 2.63466 22.8618 2.66302 22.9319C2.72948 23.0962 2.88703 23.1953 3.05407 23.1953C3.10622 23.1953 3.1593 23.1857 3.21078 23.1653C3.427 23.0795 3.53299 22.834 3.44893 22.6172C3.42691 22.5606 2.92361 21.2106 3.93953 19.2422C5.1782 16.8423 9.50233 16.0886 9.55787 16.0792C9.7884 16.0407 9.94418 15.8226 9.90574 15.592C9.8673 15.3615 9.64939 15.2053 9.4186 15.2441Z" fill="white"/>
<path d="M28.8156 5.62347C28.5212 5.13193 28.1623 4.7088 27.7561 4.36592C27.9388 4.04591 28.2184 3.46725 28.4044 2.66585C28.6994 1.39535 28.4118 0.351401 28.3994 0.307546C28.336 0.0830265 28.1031 -0.0469276 27.8784 0.0156366C27.6536 0.0783702 27.5223 0.311695 27.5844 0.536554C27.5867 0.545358 27.8234 1.4249 27.5797 2.47444C27.4283 3.12658 27.207 3.60576 27.0569 3.88099C26.5843 3.61718 26.0707 3.44846 25.5363 3.38852C25.0087 3.32917 23.9211 3.36422 23.2619 3.62701C21.4747 4.33968 19.3748 7.14457 18.5141 8.52809C17.1031 10.7966 15.4515 12.2183 13.605 12.7537C12.8242 12.9801 11.8154 13.0722 10.7474 13.1697C8.30394 13.3927 5.53461 13.6455 3.43757 15.5035C0.784816 17.8539 0.325024 20.5826 0.406468 22.4577C0.533628 25.385 2.07691 28.2895 4.43419 30.038C6.1876 31.3385 8.19888 32 10.3521 32C11.2158 32 12.1026 31.8935 13.0046 31.6791C15.7052 31.0372 18.4569 29.4403 20.7529 27.1826C22.8247 25.1451 24.9701 22.1464 26.6387 18.9553C28.3724 15.6399 29.4136 12.4969 29.5706 10.1052C29.6971 8.17904 29.443 6.67115 28.8156 5.62347ZM20.1591 26.579C16.0998 30.5707 9.8192 32.9782 4.9386 29.3581C2.78128 27.7578 1.36872 25.0997 1.2524 22.421C1.17883 20.7296 1.59569 18.2664 3.99895 16.1371C5.88807 14.4634 8.5106 14.224 10.8244 14.0127C11.934 13.9114 12.9819 13.8157 13.8408 13.5668C15.894 12.9714 17.7081 11.4266 19.233 8.97527C19.4361 8.64865 19.6932 8.26836 19.9866 7.86799C20.3527 8.08244 21.0734 8.42565 21.8729 8.38019C22.2546 8.35843 22.5881 8.23077 22.866 8.06593C22.8502 8.32533 22.8465 8.61284 22.8655 8.91525C22.9268 9.89528 23.4805 10.9835 23.504 11.0294C23.5736 11.1649 23.7106 11.2526 23.8629 11.2589C23.9098 11.2608 25.0486 11.2978 26.1752 10.406C26.3071 10.3016 26.4281 10.1854 26.5384 10.0637C26.5719 10.2761 26.6269 10.4844 26.7124 10.6725C27.0717 11.4631 27.923 12.0703 28.3461 12.335C27.2056 16.9214 23.7751 23.0232 20.1591 26.579ZM28.7257 10.0498C28.6968 10.4895 28.6343 10.9579 28.5412 11.4484C28.1574 11.1755 27.6839 10.7641 27.483 10.3222C27.2475 9.80393 27.3632 8.86741 27.4277 8.5507C27.4724 8.33304 27.3411 8.11783 27.1271 8.05789C27.089 8.04722 27.0507 8.04214 27.0128 8.04214C26.8382 8.04214 26.6759 8.15093 26.6143 8.32305C26.5233 8.57737 26.1728 9.32797 25.6495 9.74221C25.0578 10.2107 24.4629 10.3524 24.1413 10.3949C23.9915 10.0543 23.7452 9.41999 23.7103 8.86242C23.6489 7.88036 23.8639 7.05932 23.8659 7.0517C23.9202 6.85037 23.8197 6.63957 23.6293 6.55482C23.4387 6.47016 23.2151 6.53662 23.1018 6.71162C23.0967 6.71949 22.5767 7.49193 21.8245 7.53494C21.3007 7.56474 20.7998 7.34894 20.5054 7.18868C21.4563 5.99412 22.6263 4.79194 23.5754 4.4135C24.0287 4.23275 24.923 4.1718 25.4419 4.22987C26.4993 4.3484 27.4641 5.01493 28.089 6.05854C28.6265 6.95586 28.8406 8.29866 28.7257 10.0498Z" fill="white"/>
</svg>
