<svg width="16" height="16" viewBox="0 0 16 16" fill="none" xmlns="http://www.w3.org/2000/svg">
<g clip-path="url(#clip0_2137_3690)">
<path d="M15.5683 6.95923C15.5679 6.95886 15.5675 6.9585 15.5672 6.95813L9.04044 0.431641C8.76224 0.15332 8.39236 0 7.99893 0C7.6055 0 7.23563 0.153198 6.95731 0.431519L0.433992 6.95471C0.431794 6.95691 0.429597 6.95923 0.4274 6.96143C-0.143889 7.53601 -0.142913 8.46826 0.430207 9.04138C0.692048 9.30334 1.03787 9.45508 1.40762 9.47095C1.42264 9.47241 1.43778 9.47314 1.45303 9.47314H1.71317V14.2762C1.71317 15.2267 2.48648 16 3.43717 16H5.99063C6.24942 16 6.45938 15.7902 6.45938 15.5312V11.7656C6.45938 11.3319 6.81216 10.9791 7.24588 10.9791H8.75198C9.1857 10.9791 9.53848 11.3319 9.53848 11.7656V15.5312C9.53848 15.7902 9.74832 16 10.0072 16H12.5607C13.5114 16 14.2847 15.2267 14.2847 14.2762V9.47314H14.5259C14.9192 9.47314 15.2891 9.31995 15.5675 9.04163C16.1413 8.46753 16.1415 7.53369 15.5683 6.95923V6.95923Z" fill="#00A74C"/>
</g>
<defs>
<clipPath id="clip0_2137_3690">
<rect width="16" height="16" fill="white"/>
</clipPath>
</defs>
</svg>
