<svg width="16" height="16" viewBox="0 0 16 16" fill="none" xmlns="http://www.w3.org/2000/svg">
<g clip-path="url(#clip0_2137_3717)">
<path d="M15.6 6.92799C15.5995 6.92763 15.5991 6.92714 15.5988 6.92677L9.07203 0.400269C8.79383 0.121949 8.42395 -0.03125 8.03052 -0.03125C7.63709 -0.03125 7.26721 0.121949 6.98889 0.400269L0.465563 6.92348C0.463366 6.92567 0.461046 6.92799 0.458971 6.93019C-0.112319 7.50478 -0.111343 8.43703 0.461779 9.01015C0.72362 9.27211 1.06932 9.42372 1.43908 9.43972C1.45421 9.44118 1.46935 9.44191 1.48461 9.44191H1.74462V14.2449C1.74462 15.1955 2.51806 15.9688 3.46862 15.9688H6.02209C6.281 15.9688 6.49084 15.7588 6.49084 15.5V11.7344C6.49084 11.3007 6.84375 10.9479 7.27747 10.9479H8.78357C9.21729 10.9479 9.57007 11.3007 9.57007 11.7344V15.5C9.57007 15.7588 9.77991 15.9688 10.0388 15.9688H12.5923C13.543 15.9688 14.3163 15.1955 14.3163 14.2449V9.44191H14.5575C14.9508 9.44191 15.3207 9.28871 15.5991 9.01027C16.1729 8.4363 16.1731 7.50233 15.6 6.92799ZM14.9362 8.34743C14.835 8.44862 14.7005 8.50441 14.5575 8.50441H13.8475C13.5886 8.50441 13.3788 8.71425 13.3788 8.97316V14.2449C13.3788 14.6785 13.026 15.0313 12.5923 15.0313H10.5076V11.7344C10.5076 10.7838 9.73426 10.0104 8.78357 10.0104H7.27747C6.32678 10.0104 5.55334 10.7838 5.55334 11.7344V15.0313H3.46862C3.03503 15.0313 2.68212 14.6785 2.68212 14.2449V8.97316C2.68212 8.71425 2.47228 8.50441 2.21337 8.50441H1.51561C1.50829 8.50392 1.50109 8.50356 1.49364 8.50343C1.35399 8.50099 1.22301 8.44557 1.12487 8.34731C0.916125 8.13857 0.916125 7.79884 1.12487 7.58998C1.12499 7.58998 1.12499 7.58986 1.12511 7.58974L1.12548 7.58937L7.65198 1.06311C7.75305 0.961916 7.88745 0.906252 8.03052 0.906252C8.17346 0.906252 8.30786 0.961916 8.40906 1.06311L14.9341 7.58803C14.9351 7.589 14.9362 7.58998 14.9372 7.59096C15.1448 7.80006 15.1444 8.13905 14.9362 8.34743Z" fill="#BDBDBD"/>
</g>
<defs>
<clipPath id="clip0_2137_3717">
<rect width="16" height="16" fill="white"/>
</clipPath>
</defs>
</svg>
