<svg width="16" height="16" viewBox="0 0 16 16" fill="none" xmlns="http://www.w3.org/2000/svg">
<g clip-path="url(#clip0_2137_3758)">
<path d="M5.78784 14.5566C6.16343 15.4057 7.01342 16 8.00005 16C8.98668 16 9.83664 15.4057 10.2123 14.5566H5.78784Z" fill="#00A74C"/>
<path d="M7.99985 1.52864C8.65092 1.52864 9.27608 1.64352 9.85622 1.85384V1.78238C9.85622 0.799568 9.05665 0 8.07388 0H7.92617C6.94336 0 6.1438 0.799568 6.1438 1.78238V1.85293C6.72363 1.64324 7.34859 1.52864 7.99985 1.52864Z" fill="#00A74C"/>
<path d="M13.8587 13.6176H2.14133C1.91965 13.6176 1.7166 13.4681 1.67049 13.2512C1.62485 13.0365 1.7227 12.8246 1.92122 12.7329C1.96832 12.7023 2.32291 12.4544 2.6779 11.7043C3.32988 10.3267 3.46673 8.38613 3.46673 7.00078C3.46673 4.50119 5.5003 2.46768 7.99986 2.46768C10.4935 2.46768 12.5233 4.49139 12.533 6.98278C12.5332 6.98876 12.5333 6.99477 12.5333 7.00078C12.5333 8.38613 12.6702 10.3267 13.3221 11.7043C13.6771 12.4544 14.0317 12.7024 14.0788 12.7329C14.2773 12.8246 14.3752 13.0365 14.3295 13.2512C14.2834 13.468 14.0804 13.6176 13.8587 13.6176ZM14.0841 12.7362H14.0844H14.0841Z" fill="#00A74C"/>
</g>
<defs>
<clipPath id="clip0_2137_3758">
<rect width="16" height="16" fill="white"/>
</clipPath>
</defs>
</svg>
