<svg width="16" height="16" viewBox="0 0 16 16" fill="none" xmlns="http://www.w3.org/2000/svg">
<g clip-path="url(#clip0_2137_3702)">
<path d="M14.0688 12.7329C14.0217 12.7024 13.6678 12.4544 13.3133 11.7043C12.6624 10.3267 12.5258 8.38612 12.5258 7.00078C12.5258 6.99475 12.5257 6.98878 12.5255 6.98278C12.5184 5.15188 11.422 3.57356 9.85316 2.86541V1.78237C9.85316 0.799562 9.05491 0 8.07372 0H7.92625C6.94506 0 6.14681 0.799562 6.14681 1.78237V2.86534C4.57269 3.57578 3.47415 5.16216 3.47415 7.00078C3.47415 8.38612 3.33753 10.3267 2.68662 11.7043C2.33222 12.4544 1.97825 12.7023 1.93119 12.7329C1.733 12.8246 1.63528 13.0365 1.68087 13.2512C1.7269 13.4681 1.92959 13.6176 2.15094 13.6176H5.58678C5.60597 14.9345 6.68078 16 8 16C9.31922 16 10.394 14.9345 10.4132 13.6176H13.8491C14.0704 13.6176 14.2731 13.4681 14.3191 13.2512C14.3647 13.0365 14.267 12.8246 14.0688 12.7329ZM7.08434 1.78237C7.08434 1.31734 7.46203 0.939031 7.92628 0.939031H8.07375C8.538 0.939031 8.91569 1.31734 8.91569 1.78237V2.56103C8.61981 2.49988 8.31353 2.46769 7.99987 2.46769C7.68631 2.46769 7.38012 2.49984 7.08437 2.56094V1.78237H7.08434ZM8 15.061C7.19772 15.061 6.54331 14.4167 6.52428 13.6176H9.47569C9.45669 14.4167 8.80228 15.061 8 15.061ZM9.8875 12.6785C9.88741 12.6785 3.21922 12.6785 3.21922 12.6785C3.30031 12.5521 3.38284 12.409 3.46487 12.2473C4.09312 11.0085 4.41169 9.24328 4.41169 7.00078C4.41169 5.019 6.02134 3.40672 7.99984 3.40672C9.97834 3.40672 11.588 5.019 11.588 7.00234C11.588 7.00812 11.5881 7.01388 11.5883 7.01963C11.5901 9.25313 11.9086 11.012 12.5351 12.2473C12.6172 12.4091 12.6997 12.5521 12.7808 12.6785H9.8875Z" fill="#BDBDBD"/>
</g>
<defs>
<clipPath id="clip0_2137_3702">
<rect width="16" height="16" fill="white"/>
</clipPath>
</defs>
</svg>
