<svg width="16" height="16" viewBox="0 0 16 16" fill="none" xmlns="http://www.w3.org/2000/svg">
<path d="M15.8278 12.2007L15.1653 11.5382L14.0444 12.6591C13.8594 11.9013 13.158 11.4436 12.4373 11.5171L12.2168 11.5392V13.2751H11.2797V11.6329L8.46851 11.9139V13.7436H7.53144V12.0076L5.13752 12.247C4.36515 12.3243 3.78317 12.9676 3.78317 13.7436C3.78317 14.5196 4.36519 15.1629 5.13752 15.2403L9.40558 15.667V13.7436H10.3426V15.7607L12.4373 15.9926C13.1941 16.0689 13.8721 15.5427 14.0455 14.8293L15.1653 15.949L15.8278 15.2865L14.7535 14.2122H15.9963V13.2751H14.7535L15.8278 12.2007Z" fill="#00A74C"/>
<path d="M12.344 10.5847C12.9099 10.5265 13.4769 10.674 13.9616 11.0066C14.0424 10.6795 14.091 10.3416 14.091 9.99539C14.091 9.20885 13.87 8.31707 13.4517 7.65178C13.0331 6.98606 13.0409 6.19493 13.1205 5.64771C13.1813 5.23043 13.1589 4.80491 13.0546 4.38167C12.7499 3.14489 11.7035 2.16941 10.4507 1.95482C10.4001 1.94623 10.35 1.95185 10.2994 1.9456C10.097 0.858198 9.14504 0 8.00001 0H7.53147V0.937068H8.00001C8.63406 0.937068 9.16506 1.39292 9.33961 1.97075C8.76337 2.06639 8.21541 2.29419 7.76071 2.6768C7.12241 3.21539 6.73762 3.97201 6.63776 4.78926C7.05813 4.70783 7.43933 4.68397 7.92773 4.77102C10.2135 5.17402 11.6746 7.90289 11.1825 10.7008L12.344 10.5847Z" fill="#00A74C"/>
<path d="M5.04421 11.3145L10.1951 10.7995C10.2149 10.7123 10.2436 10.6302 10.2594 10.5408C10.663 8.25075 9.54242 6.00731 7.76209 5.69342C7.11695 5.57767 6.45484 5.7131 5.84584 6.07822C5.77731 6.11904 5.70147 6.14444 5.62651 6.17161C5.54305 5.60734 5.29044 5.08396 4.8891 4.65934C4.36018 4.10028 3.61575 3.77953 2.84613 3.77953V4.71659C3.36683 4.71659 3.85045 4.92478 4.20825 5.30317C4.43137 5.53937 4.57652 5.82433 4.65396 6.13007C4.61385 6.11161 4.57118 6.10214 4.53264 6.07915C3.92226 5.71267 3.25925 5.57723 2.61549 5.69342C1.07551 5.96499 0.00322425 7.68023 0.00369278 9.62058C0.00422379 11.8465 1.39821 13.6332 2.8749 14.0516C2.86209 13.9498 2.84613 13.8489 2.84613 13.7437C2.84613 12.4845 3.79098 11.4399 5.04421 11.3145Z" fill="#00A74C"/>
</svg>
