<svg width="16" height="16" viewBox="0 0 16 16" fill="none" xmlns="http://www.w3.org/2000/svg">
<g clip-path="url(#clip0_2137_3694)">
<path d="M14.7567 13.2811L15.8314 12.2063L15.1685 11.5434L14.05 12.662C13.979 12.3725 13.8233 12.1071 13.5988 11.9039C13.5967 11.902 13.5946 11.9003 13.5925 11.8985C13.9172 11.2868 14.0938 10.5819 14.0938 9.87492C14.0938 9.08847 13.8726 8.32093 13.4541 7.65523C13.0356 6.9895 13.043 6.19768 13.1227 5.6507C13.3909 3.81335 12.1156 2.20967 10.4518 1.92462C10.4018 1.91606 10.3517 1.9089 10.3016 1.90265C10.0945 0.820653 9.14163 0.000207901 8.00016 0.000207901H7.53143V0.93768H8.00016C8.62905 0.93768 9.16279 1.3527 9.34203 1.92318C7.76217 2.19061 6.59396 3.5722 6.59396 5.18756C6.59396 5.4467 6.62214 5.59676 6.63864 5.7447C6.36815 5.81519 6.1015 5.92744 5.84407 6.08144C5.77498 6.12278 5.7022 6.15646 5.6273 6.1835C5.54524 5.61567 5.29178 5.08906 4.88807 4.66201C4.35899 4.10231 3.61398 3.78132 2.84403 3.78132V4.71879C3.36486 4.71879 3.84885 4.92734 4.20681 5.30602C4.43511 5.54751 4.59095 5.83707 4.66645 6.15071C4.62029 6.13031 4.57501 6.10756 4.53136 6.08144C3.92016 5.71576 3.25699 5.58251 2.61367 5.69595C1.07165 5.96784 -0.0273814 7.5967 0.000430279 9.56899C0.0214922 11.0615 0.65413 12.4655 1.69279 13.3246C2.29368 13.8216 3.03159 14.1241 3.81547 14.0683C3.94963 14.6959 4.47264 15.1806 5.13559 15.2469L12.4394 15.9922C13.1857 16.0668 13.8779 15.5799 14.0529 14.8406L15.1685 15.9562L15.8314 15.2934L14.7567 14.2186H16V13.2811H14.7567ZM3.92247 13.1119C3.92035 13.1122 3.91819 13.1127 3.91607 13.1131C3.38014 13.2075 2.80282 13.0262 2.29033 12.6022C1.47307 11.9262 0.95484 10.7589 0.937903 9.55587C0.916653 8.04588 1.68991 6.81085 2.7766 6.61923C3.19471 6.54548 3.63523 6.6377 4.05019 6.88601C4.74132 7.29943 5.63436 7.29943 6.32553 6.88601C6.74048 6.63776 7.18088 6.54552 7.59918 6.61926C8.19013 6.72348 8.69833 7.14153 9.03016 7.79648C9.38478 8.49633 9.4939 9.3704 9.33744 10.2576C9.23066 10.8632 9.00885 11.4407 8.70983 11.8954L5.13656 12.2527C4.59073 12.3073 4.14012 12.6448 3.92247 13.1119ZM13.1563 14.495C13.1563 14.8308 12.8676 15.0925 12.5334 15.0595L10.3439 14.8361V13.7499H9.40644V14.7404L5.22984 14.3142C4.93866 14.2851 4.71907 14.0425 4.71907 13.7499C4.71907 13.4573 4.93863 13.2146 5.22981 13.1855L7.53149 12.9554V13.7499H8.46896V12.8616L11.2814 12.5804V13.2811H12.2189V12.4866L12.5328 12.4552C12.8658 12.4219 13.1563 12.6823 13.1563 13.0196V14.495ZM12.7307 11.5222C12.6344 11.513 12.5369 11.5127 12.4394 11.5224L9.83845 11.7825C10.0315 11.3612 10.1767 10.8965 10.2606 10.4203C10.4521 9.33465 10.312 8.25234 9.86636 7.37271C9.39794 6.44814 8.65055 5.85266 7.76192 5.69598C7.69933 5.68495 7.63655 5.67695 7.57365 5.67057C7.55433 5.48808 7.53149 5.38896 7.53149 5.18756C7.53149 3.76541 8.80145 2.59294 10.2936 2.84862C11.4868 3.05306 12.3865 4.20468 12.1952 5.51533C12.0481 6.52339 12.209 7.43586 12.6605 8.15416C12.9849 8.67023 13.1564 9.26525 13.1564 9.87492C13.1563 10.4548 13.0062 11.0312 12.7307 11.5222Z" fill="#BDBDBD"/>
</g>
<defs>
<clipPath id="clip0_2137_3694">
<rect width="16" height="16" fill="white"/>
</clipPath>
</defs>
</svg>
