<svg width="32" height="32" viewBox="0 0 32 32" fill="none" xmlns="http://www.w3.org/2000/svg">
<path d="M6.00465 21.51C6.00465 27.2756 7.72965 30.5823 10.7375 30.5823C11.3081 30.5823 12.0135 29.9331 12.5203 29.3668C13.5693 30.8791 14.7638 31.6875 16 31.6875C17.2103 31.6875 18.396 30.9086 19.4452 29.4299C19.9446 29.9674 20.6495 30.5823 21.2626 30.5823C22.9688 30.5823 24.2382 29.6228 25.0351 27.7305C25.6723 26.218 25.9954 24.1249 25.9954 21.51C25.9954 19.9805 26.585 18.512 27.1551 17.0919C27.9038 15.2272 28.678 13.299 28.0635 11.2757C27.5956 9.7354 26.3003 8.6274 24.5985 8.31178C23.9787 8.19991 23.3415 8.23278 22.7365 8.40784C22.0423 7.59421 21.3599 7.05065 20.6038 6.70784C19.6225 6.26246 18.5378 6.18728 17.3745 6.48159C17.0697 4.30521 16.385 2.73265 15.3045 1.71284C14.2163 0.686088 12.7232 0.220026 10.8675 0.327901C10.7705 0.333526 10.6796 0.376515 10.6137 0.447828C10.5478 0.519141 10.5122 0.613219 10.5143 0.710276L10.5455 2.16553C10.5475 2.25818 10.5837 2.34683 10.6472 2.41435C10.7107 2.48188 10.7969 2.52351 10.8893 2.53121C12.1932 2.63959 13.0683 2.98121 13.5643 3.57553C14.2748 4.42653 14.245 5.79428 14.0913 7.51971C13.369 7.03803 12.4262 6.87728 11.4432 7.09071C10.5123 7.29284 9.75027 7.80609 9.39321 8.44634C8.75037 8.23872 8.06631 8.19253 7.4014 8.31184C5.69958 8.62746 4.40427 9.73546 3.9364 11.2758C3.32183 13.2991 4.09602 15.2273 4.84471 17.092C5.41508 18.512 6.00465 19.9805 6.00465 21.51ZM21.9842 8.68665C21.2178 9.04146 20.464 9.60734 19.7516 10.3703C19.1137 9.83441 18.3642 9.44777 17.5578 9.23859C17.5533 8.52546 17.5214 7.8573 17.4622 7.23409C19.6288 6.64371 21.0087 7.60621 21.9842 8.68665ZM14.1405 3.09478C13.557 2.39584 12.6217 1.97659 11.2883 1.81765L11.2721 1.06309C12.7615 1.03853 13.9143 1.43184 14.7898 2.25821C16.1067 3.50084 16.7677 5.73884 16.8073 9.09396C16.1015 9.00584 15.3859 9.03347 14.689 9.17578C14.7131 8.90703 14.7386 8.64284 14.7635 8.38471C14.975 6.19996 15.1576 4.31315 14.1403 3.09478H14.1405ZM11.603 7.82359C12.5496 7.61815 13.4366 7.84034 14.007 8.41734C13.9764 8.73415 13.9455 9.0594 13.9173 9.39234C13.3043 9.61203 12.7352 9.93849 12.236 10.3566C11.5533 9.62815 10.8325 9.0809 10.0993 8.7264C10.3715 8.31396 10.933 7.96871 11.6027 7.82359H11.603ZM4.65421 11.4937C5.03908 10.2267 6.11727 9.31284 7.53833 9.04928C8.15921 8.93403 8.80408 9.00834 9.4494 9.26053C9.45658 9.26359 9.4639 9.26634 9.47133 9.26903C10.2236 9.56765 10.9761 10.1084 11.6918 10.8729C10.8508 11.7787 10.223 13.002 9.85671 14.5028C9.84476 14.5508 9.84239 14.6006 9.84975 14.6494C9.85711 14.6983 9.87404 14.7452 9.89958 14.7875C9.92512 14.8297 9.95877 14.8666 9.99858 14.8958C10.0384 14.925 10.0836 14.9461 10.1316 14.9579C10.1796 14.9696 10.2294 14.9717 10.2782 14.9641C10.327 14.9565 10.3738 14.9394 10.416 14.9136C10.4581 14.8879 10.4948 14.8541 10.5239 14.8141C10.5529 14.7742 10.5738 14.7289 10.5853 14.6808C10.9841 13.0477 11.6907 11.7942 12.6853 10.955C13.5987 10.1843 14.714 9.79371 16 9.79371C17.3779 9.79371 18.5645 10.2562 19.5 11.1447C19.5111 11.1574 19.523 11.1695 19.5357 11.1807C19.5396 11.184 19.5438 11.1869 19.5478 11.19C19.9273 11.564 20.2544 11.9877 20.5202 12.4495C20.5704 12.5354 20.6526 12.5979 20.7488 12.6232C20.845 12.6484 20.9473 12.6345 21.0331 12.5843C21.119 12.5342 21.1815 12.452 21.2068 12.3558C21.2321 12.2596 21.2181 12.1573 21.168 12.0714C20.9212 11.6459 20.6284 11.2488 20.2947 10.8875C21.635 9.44934 23.1051 8.79778 24.4617 9.04928C25.8828 9.31284 26.961 10.2267 27.3458 11.4937C27.8837 13.2645 27.1918 14.9879 26.4591 16.8125C25.8624 18.2987 25.2454 19.8355 25.2454 21.51C25.2454 24.0244 24.9421 26.0193 24.344 27.4394C23.6658 29.0495 22.6579 29.8323 21.2627 29.8323C21.0301 29.8323 20.5065 29.5006 19.869 28.7804C20.7388 27.3403 21.4705 25.4247 21.9445 23.332C21.9567 23.2835 21.9591 23.2331 21.9516 23.1837C21.944 23.1343 21.9266 23.0868 21.9004 23.0442C21.8743 23.0016 21.8399 22.9647 21.7992 22.9356C21.7586 22.9065 21.7125 22.8858 21.6637 22.8747C21.615 22.8637 21.5645 22.8625 21.5153 22.8712C21.466 22.88 21.4191 22.8985 21.3771 22.9257C21.3351 22.9528 21.299 22.9881 21.2709 23.0294C21.2427 23.0708 21.2232 23.1173 21.2133 23.1663C20.7207 25.3407 19.9458 27.3079 19.0313 28.7057C18.3651 29.7238 17.2985 30.9375 16 30.9375C14.9388 30.9375 13.852 30.0927 12.8913 28.564C12.8837 28.55 12.8752 28.5365 12.8659 28.5237C12.5007 27.9279 12.1818 27.305 11.9121 26.6605C11.8931 26.6148 11.8652 26.5733 11.8301 26.5384C11.795 26.5035 11.7533 26.4759 11.7075 26.4572C11.6617 26.4385 11.6126 26.4291 11.5631 26.4294C11.5136 26.4298 11.4646 26.44 11.4191 26.4593C11.3735 26.4787 11.3323 26.5069 11.2977 26.5423C11.2631 26.5777 11.2358 26.6196 11.2175 26.6655C11.1992 26.7115 11.1901 26.7607 11.1909 26.8102C11.1916 26.8597 11.2022 26.9085 11.2219 26.9539C11.4756 27.5576 11.7688 28.1439 12.0996 28.709C11.3239 29.6194 10.8485 29.8323 10.7375 29.8323C9.41433 29.8323 8.39502 29.026 7.70777 27.4362C7.08427 25.9937 6.75465 23.9444 6.75465 21.51C6.75465 19.8355 6.13765 18.2987 5.5409 16.8125C4.80827 14.9878 4.11633 13.2645 4.65421 11.4937Z" fill="white"/>
<path d="M6.33012 14.889C6.40162 15.1352 6.48537 15.3925 6.58605 15.676C6.71593 16.0415 6.85618 16.3992 6.9763 16.701C6.99408 16.7473 7.02089 16.7897 7.05516 16.8256C7.08943 16.8615 7.13049 16.8902 7.17595 16.9101C7.22141 16.93 7.27038 16.9407 7.32 16.9416C7.36963 16.9424 7.41893 16.9334 7.46505 16.9151C7.51116 16.8967 7.55318 16.8694 7.58866 16.8347C7.62413 16.8 7.65237 16.7586 7.67172 16.7129C7.69108 16.6672 7.70117 16.6181 7.70141 16.5684C7.70164 16.5188 7.69203 16.4696 7.67311 16.4237C7.55561 16.1283 7.41849 15.7787 7.2928 15.4248C7.19699 15.1553 7.1178 14.9117 7.05036 14.6798C6.96332 14.385 6.89274 14.0857 6.83893 13.7831C6.79421 13.5302 6.76602 13.2746 6.75455 13.018C6.75041 12.9186 6.70696 12.825 6.63376 12.7577C6.56056 12.6903 6.46361 12.6548 6.36424 12.659C6.26487 12.6631 6.17121 12.7066 6.10387 12.7797C6.03654 12.8529 6.00103 12.9499 6.00518 13.0493C6.01803 13.3385 6.04972 13.6266 6.10005 13.9118C6.15854 14.2415 6.23534 14.5678 6.33012 14.889Z" fill="white"/>
<path d="M7.67993 18.508C7.77912 18.7863 7.86224 19.0399 7.93424 19.2836C7.94819 19.3309 7.97131 19.3749 8.00228 19.4132C8.03324 19.4515 8.07145 19.4833 8.11471 19.5068C8.15797 19.5304 8.20545 19.5451 8.25442 19.5503C8.3034 19.5555 8.35291 19.551 8.40014 19.537C8.44737 19.5231 8.49139 19.5 8.52969 19.469C8.56799 19.438 8.59981 19.3998 8.62334 19.3566C8.64687 19.3133 8.66165 19.2658 8.66683 19.2169C8.67202 19.1679 8.6675 19.1184 8.65355 19.0711C8.57761 18.8141 8.49024 18.5475 8.38643 18.2562C8.37078 18.2087 8.3458 18.1648 8.31294 18.1271C8.28008 18.0894 8.24001 18.0586 8.19509 18.0367C8.15016 18.0147 8.1013 18.0019 8.05137 17.9991C8.00143 17.9963 7.95144 18.0035 7.90433 18.0202C7.85722 18.037 7.81394 18.0631 7.77705 18.0969C7.74016 18.1306 7.71039 18.1714 7.68951 18.2169C7.66862 18.2623 7.65704 18.3115 7.65544 18.3615C7.65383 18.4115 7.66225 18.4613 7.68018 18.5079L7.67993 18.508Z" fill="white"/>
</svg>
