<svg width="32" height="30" viewBox="0 0 32 30" fill="none" xmlns="http://www.w3.org/2000/svg">
<path d="M31.195 2.9733C29.6651 3.46799 25.7652 4.91949 20.8713 8.155C21.164 7.37462 21.4296 6.56012 21.6519 5.71868C21.718 5.46837 21.5687 5.21187 21.3185 5.14575C21.0682 5.07956 20.8117 5.22893 20.7455 5.47918C19.732 9.31538 17.2979 14.0656 14.7356 16.468C15.1438 15.5824 16.1327 13.1558 16.7486 10.3996L21.3735 1.79905C21.3367 2.30674 21.2776 2.82174 21.1968 3.33918C21.1569 3.59493 21.3319 3.83468 21.5877 3.87462C21.8437 3.91487 22.0832 3.73955 22.1231 3.4838C22.2686 2.55211 22.3469 1.62655 22.356 0.732986C22.3592 0.415986 22.1467 0.13936 21.8393 0.0602973C21.5314 -0.0189528 21.2113 0.121172 21.0609 0.40086L17.2339 7.51762C17.4298 5.75656 17.4435 3.91555 17.1677 2.0678C17.1141 1.70911 16.8239 1.43774 16.462 1.4078C16.0991 1.3778 15.768 1.59836 15.656 1.94405L12.2516 12.4571C11.3663 15.1911 9.8242 17.7102 7.7922 19.7423C5.49763 22.0368 4.36557 23.2985 2.51906 24.4222C2.31225 24.548 2.12206 24.6983 1.94075 24.8835L1.1775 24.427C0.955122 24.294 0.667434 24.3664 0.534559 24.5885C0.401683 24.8107 0.473996 25.0985 0.696184 25.2315L1.39725 25.6508C1.27225 25.9078 1.18843 26.1796 1.15075 26.4567L0.444184 26.4939C0.185683 26.5075 -0.0128798 26.7281 0.000745219 26.9866C0.0139327 27.2367 0.220871 27.4307 0.468434 27.4307C0.488559 27.4307 1.18862 27.3934 1.20887 27.3924C1.39075 28.0407 1.87981 28.5664 2.56844 28.7689L2.53162 29.4682C2.518 29.7267 2.71656 29.9473 2.97513 29.9609C3.23581 29.9742 3.45431 29.7743 3.46788 29.5174L3.50356 28.839C3.78194 28.8045 4.06156 28.7233 4.32919 28.595L4.73025 29.2655C4.81807 29.4123 4.9735 29.4937 5.13294 29.4937C5.49457 29.4937 5.72194 29.0972 5.53476 28.7842L5.09869 28.0553C5.27863 27.8804 5.42569 27.6978 5.55144 27.496C6.15944 26.5205 6.94063 25.5605 7.93982 24.5613C8.06126 24.4399 11.5306 20.9705 11.5109 20.9903C12.8234 19.6778 15.5226 18.614 19.3167 17.9142C19.5713 17.8673 19.7397 17.6228 19.6927 17.3682C19.6457 17.1136 19.4012 16.945 19.1467 16.9923C16.9353 17.4001 15.0979 17.921 13.6468 18.55C14.6959 17.8223 15.6622 16.9644 16.522 15.9556C17.8035 15.4831 19.1497 15.0953 20.5136 14.8641C22.2457 14.5703 24.0173 14.9378 25.5024 15.8985L25.9661 16.1985C24.8336 16.2635 23.1875 16.3913 21.356 16.6404C21.0995 16.6753 20.9198 16.9115 20.9547 17.168C20.9896 17.4245 21.2258 17.6042 21.4823 17.5693C23.8412 17.2486 25.887 17.1321 26.8967 17.0913C27.5337 17.0653 27.7482 16.236 27.2338 15.9021C25.9024 15.0406 23.7577 13.3629 20.3567 13.9397C19.922 14.0134 19.4798 14.1041 19.0313 14.211C22.9058 10.8163 27.815 6.70756 31.7275 4.06549C32.3142 3.66937 31.8686 2.75562 31.195 2.9733ZM4.75594 27.0003C4.41075 27.5543 3.76738 27.9568 3.13031 27.9232C3.09625 27.918 3.08681 27.9186 3.06588 27.9183C1.761 27.7861 1.73025 25.9996 3.00656 25.223C4.83132 24.1126 6.03613 22.8242 7.31088 21.5495L8.46851 22.7071C7.13282 24.0428 5.87082 25.2112 4.75594 27.0003ZM9.13139 22.0442L7.97376 20.8866L8.4552 20.4052C10.5916 18.2688 12.2128 15.6203 13.1436 12.7459L16.3305 2.90437C16.7591 6.83462 15.8951 10.9419 14.4895 14.611C13.0465 18.3703 11.8151 19.3605 9.13139 22.0442ZM18.0457 13.829C18.879 12.4941 19.6308 11.0769 20.2302 9.72444C23.8494 7.19587 26.9938 5.64218 29.1457 4.74124C25.493 7.41906 21.3545 10.9195 18.0457 13.829Z" fill="white"/>
</svg>
